Coordinates
version=1
nRows=16
nColumns=30
inDegrees=yes

Units are S.I. units (second, meters, Newtons, ...)
Angles are in degrees.

endheader
time	floatyaw	floatroll	floatpitch	floatx	floaty	floatz	pro_sup_l	deviation_l	flexion_l	cmc_flexion_l	cmc_abduction_l	mp_flexion_l	ip_flexion_l	2mcp_flexion_l	2mcp_abduction_l	2pm_flexion_l	2md_flexion_l	3mcp_flexion_l	3mcp_abduction_l	3pm_flexion_l	3md_flexion_l	4mcp_flexion_l	4mcp_abduction_l	4pm_flexion_l	4md_flexion_l	5mcp_flexion_l	5mcp_abduction_l	5pm_flexion_l	5md_flexion_l
-0.995000	-160.147433	-5.066637	-73.570646	0.081031	-0.181779	-0.017435	103.262497	4.500758	-0.938185	12.403615	9.844282	-26.129827	-41.165623	30.024158	6.946516	43.761677	30.213109	23.952669	4.374936	46.001439	30.824097	13.358575	-4.474456	53.203351	36.848988	2.465230	-8.123641	61.711815	42.830970
-0.985000	-160.147433	-5.066637	-73.570646	0.081034	-0.181769	-0.017436	103.239401	4.488053	-0.920892	12.378139	9.872278	-26.150443	-41.193905	30.031935	6.949693	43.722025	30.190620	23.937218	4.378209	46.001675	30.824874	13.341781	-4.475676	53.209240	36.856970	2.446960	-8.121639	61.719154	42.836479
-0.975000	-160.147433	-5.066637	-73.570646	0.081038	-0.181762	-0.017441	103.213492	4.472254	-0.907456	12.354832	9.895077	-26.170018	-41.225540	30.044476	6.950503	43.676478	30.164580	23.930206	4.378904	46.000547	30.822840	13.332341	-4.476794	53.208796	36.860831	2.426996	-8.119055	61.727992	42.842919
-0.965000	-160.147433	-5.066637	-73.570646	0.081042	-0.181761	-0.017448	103.186253	4.455461	-0.900508	12.334470	9.913864	-26.184699	-41.257522	30.059228	6.950390	43.640433	30.143370	23.933289	4.377600	45.999895	30.819166	13.336387	-4.477535	53.198525	36.858299	2.411278	-8.118170	61.738975	42.849580
-0.955000	-160.147433	-5.066637	-73.570646	0.081045	-0.181762	-0.017456	103.160140	4.440262	-0.899461	12.315689	9.927961	-26.190356	-41.284995	30.072620	6.951783	43.624613	30.132658	23.945082	4.375759	45.999999	30.814281	13.355100	-4.477606	53.178171	36.848889	2.404259	-8.120596	61.753111	42.855760
-0.945000	-160.147433	-5.066637	-73.570646	0.081045	-0.181762	-0.017460	103.138052	4.428914	-0.901678	12.296557	9.935138	-26.185059	-41.303721	30.081919	6.956582	43.631752	30.133765	23.961638	4.374960	46.000238	30.808254	13.383734	-4.476783	53.151812	36.834800	2.406900	-8.127090	61.772281	42.861523
-0.935000	-160.147433	-5.066637	-73.570646	0.081043	-0.181761	-0.017460	103.121912	4.422230	-0.904428	12.276060	9.934041	-26.170778	-41.312570	30.086247	6.965081	43.657245	30.144263	23.977968	4.376125	46.000364	30.801517	13.413355	-4.475088	53.127107	36.820654	2.416015	-8.137582	61.798705	42.867904
-0.925000	-160.147433	-5.066637	-73.570646	0.081039	-0.181759	-0.017457	103.111341	4.418920	-0.906342	12.254670	9.926829	-26.152879	-41.313900	30.086301	6.975931	43.692753	30.160165	23.989895	4.379144	46.001546	30.795504	13.434419	-4.472923	53.112885	36.812041	2.425690	-8.151268	61.833513	42.876401
-0.915000	-160.147433	-5.066637	-73.570646	0.081034	-0.181757	-0.017455	103.103501	4.416046	-0.907615	12.233991	9.919714	-26.137500	-41.311365	30.083443	6.986977	43.730393	30.178261	23.995367	4.383076	46.006401	30.792696	13.440481	-4.471055	53.116038	36.813467	2.430179	-8.166677	61.875343	42.888074
-0.905000	-160.147433	-5.066637	-73.570646	0.081026	-0.181760	-0.017454	103.094519	4.410660	-0.909095	12.215985	9.920399	-26.128557	-41.306965	30.079120	6.996215	43.765292	30.197195	23.994740	4.386738	46.017743	30.795713	13.430373	-4.470420	53.138904	36.826567	2.426665	-8.181790	61.919941	42.902781
-0.895000	-160.147433	-5.066637	-73.570646	0.081017	-0.181767	-0.017457	103.081884	4.401825	-0.911067	12.202380	9.933610	-26.126372	-41.299910	30.074922	7.002301	43.795717	30.216833	23.990124	4.389261	46.036563	30.805692	13.408133	-4.471737	53.178079	36.849274	2.416382	-8.194331	61.961116	42.918899
-0.885000	-160.147433	-5.066637	-73.570646	0.081008	-0.181776	-0.017459	103.066414	4.391806	-0.912635	12.194390	9.957522	-26.128691	-41.288242	30.072687	7.004585	43.821618	30.236698	23.984285	4.390282	46.060582	30.820933	13.381051	-4.475092	53.225136	36.876269	2.403753	-8.202320	61.992576	42.933599
-0.875000	-160.147433	-5.066637	-73.570646	0.081001	-0.181783	-0.017458	103.052426	4.385429	-0.912098	12.192535	9.983588	-26.133079	-41.271623	30.074051	7.003018	43.843121	30.254942	23.979602	4.389812	46.084590	30.837021	13.356891	-4.479724	53.269109	36.900606	2.394209	-8.204656	62.009648	42.943538
-0.865000	-160.147433	-5.066637	-73.570646	0.080998	-0.181782	-0.017449	103.045721	4.387715	-0.907954	12.196277	10.000256	-26.138871	-41.252796	30.079528	6.998143	43.860103	30.268847	23.977378	4.388005	46.102673	30.848715	13.341383	-4.484211	53.299981	36.916010	2.391775	-8.201372	62.010266	42.945813
-0.855000	-160.147433	-5.066637	-73.570646	0.080999	-0.181771	-0.017432	103.050338	4.401031	-0.899858	12.203587	9.998936	-26.147370	-41.236578	30.087928	6.991082	43.872861	30.276564	23.977653	4.385034	46.111185	30.852711	13.336728	-4.487029	53.311958	36.919083	2.397474	-8.193484	61.995230	42.938981
-0.845000	-160.147433	-5.066637	-73.570646	0.081005	-0.181753	-0.017410	103.065900	4.423479	-0.888942	12.210997	9.979176	-26.160294	-41.227445	30.096839	6.983353	43.882937	30.278702	23.979554	4.381079	46.110746	30.849537	13.341529	-4.487210	53.305224	36.910503	2.409265	-8.182633	61.967948	42.923771
